<svg id="Calque_1" data-name="Calque 1" xmlns="http://www.w3.org/2000/svg" xmlns:xlink="http://www.w3.org/1999/xlink" viewBox="0 0 1281 1028"><defs><style>.cls-1{fill:#fff;stroke-miterlimit:10;stroke:url(#Dégradé_sans_nom_8);}</style><linearGradient id="Dégradé_sans_nom_8" y1="514" x2="1281" y2="514" gradientUnits="userSpaceOnUse"><stop offset="0" stop-color="#002c3e"/><stop offset="1" stop-color="#d7dadb"/></linearGradient></defs><title>ecole</title><rect class="cls-1" x="0.5" y="0.5" width="1280" height="1027"/><image width="512" height="512" transform="translate(846 73) scale(0.15 0.15)" xlink:href="../Downloads/my-icons-collection/png/001-beach-ball.png"/><image width="512" height="512" transform="translate(959 195) scale(0.14 0.14)" xlink:href="../Downloads/my-icons-collection/png/002-calendar.png"/><image width="512" height="512" transform="translate(167 58) scale(0.98 1)" xlink:href="../Downloads/my-icons-collection/png/003-luggage.png"/><image width="512" height="512" transform="translate(1162 407) scale(0.17 0.16)" xlink:href="../Downloads/my-icons-collection/png/004-office-material.png"/><image width="512" height="512" transform="translate(961 70) scale(0.15 0.15)" xlink:href="../Downloads/my-icons-collection/png/005-hourglass.png"/><image width="512" height="512" transform="translate(880 524) scale(0.63 0.66)" xlink:href="../Downloads/my-icons-collection/png/006-edit.png"/><image width="512" height="512" transform="translate(712 685) scale(0.26 0.23)" xlink:href="../Downloads/my-icons-collection/png/008-folder.png"/><image width="512" height="512" transform="translate(538 824) scale(0.23 0.21)" xlink:href="../Downloads/my-icons-collection/png/009-man.png"/><image width="512" height="512" transform="translate(776 522) scale(0.2 0.2)" xlink:href="../Downloads/my-icons-collection/png/010-signs.png"/><image width="512" height="512" transform="translate(118 439) scale(0.39 0.37)" xlink:href="../Downloads/my-icons-collection/png/012-vision.png"/><image width="512" height="512" transform="translate(947 847) scale(0.26 0.31)" xlink:href="../Downloads/my-icons-collection/png/013-art.png"/><image width="512" height="512" transform="translate(575 465) scale(0.25 0.3)" xlink:href="../Downloads/my-icons-collection/png/014-pen-1.png"/><image width="512" height="512" transform="translate(59 678) scale(0.58 0.57)" xlink:href="../Downloads/my-icons-collection/png/016-planet.png"/><image width="512" height="512" transform="translate(861 533) scale(0.27 0.25)" xlink:href="../Downloads/my-icons-collection/png/017-draw.png"/><image width="512" height="512" transform="translate(708 401) scale(0.27 0.2)" xlink:href="../Downloads/my-icons-collection/png/018-drawing.png"/><image width="512" height="512" transform="translate(1089.4 801.17) scale(0.28 0.26)" xlink:href="../Downloads/my-icons-collection/png/019-fruit.png"/><image width="512" height="512" transform="translate(710.47 175.03) scale(0.39 0.4)" xlink:href="../Downloads/my-icons-collection/png/020-technology.png"/><image width="512" height="512" transform="translate(671 825) scale(0.27 0.3)" xlink:href="../Downloads/my-icons-collection/png/021-book.png"/><image width="512" height="512" transform="translate(952.28 305.33) scale(0.18 0.16)" xlink:href="../Downloads/my-icons-collection/png/022-clock.png"/><image width="512" height="512" transform="translate(1121 289) scale(0.18 0.23)" xlink:href="../Downloads/my-icons-collection/png/023-pen.png"/><image width="512" height="512" transform="translate(600 567) scale(0.27 0.28)" xlink:href="../Downloads/my-icons-collection/png/024-tool.png"/><image width="512" height="512" transform="translate(925 433) scale(0.16 0.15)" xlink:href="../Downloads/my-icons-collection/png/025-search.png"/><image width="512" height="512" transform="translate(1081 96) scale(0.32 0.32)" xlink:href="../Downloads/my-icons-collection/png/026-mortarboard.png"/><image width="512" height="512" transform="translate(1045 436) scale(0.16 0.16)" xlink:href="../Downloads/my-icons-collection/png/027-open-book.png"/></svg>