<svg id="Calque_1" data-name="Calque 1" xmlns="http://www.w3.org/2000/svg" viewBox="0 0 1923 1092.04"><defs><style>.cls-1{fill:#d7dadb;}.cls-2{fill:#b8bdc1;}.cls-3{fill:#e6e7e8;}.cls-4{fill:#cc4b4c;}.cls-5{fill:#f0ce49;}.cls-6{fill:#434c6d;}.cls-7{fill:#d9dbe8;}.cls-8{fill:#b1b4c4;}.cls-9{fill:#7383bf;}.cls-10{fill:#b2b5c8;}.cls-11{fill:#868ba5;}.cls-12{fill:#ecba16;}.cls-13{fill:#e39700;}.cls-14{fill:#efb754;}.cls-15{fill:#eff2fa;}.cls-16{fill:#c3e678;}.cls-17{fill:#d7deed;}.cls-18{fill:#8f96ac;}.cls-19{fill:#d75a4a;}.cls-20{fill:#ed8a19;}.cls-21{fill:#c7cac7;}.cls-22{fill:#fbce9d;}.cls-23{fill:#38454f;}.cls-24{fill:#f2ecbf;}.cls-25{fill:#ebba16;}.cls-26{fill:#e6e6e6;}.cls-27{fill:#9e6c53;}.cls-28{fill:#8a5336;}.cls-29{fill:#1f5985;}.cls-30{fill:#ccc4c1;}.cls-31{fill:#4c5870;}.cls-32{fill:#ebedec;}.cls-33{fill:#269af2;}.cls-34{fill:#e5c400;}.cls-35{fill:#59595a;}.cls-36{fill:#5f95dd;}.cls-37,.cls-38{fill:#5b5b5f;}.cls-37{opacity:0.4;}.cls-37,.cls-38,.cls-49,.cls-66{isolation:isolate;}.cls-38,.cls-66{opacity:0.3;}.cls-39{fill:#c8523b;}.cls-40{fill:#abcb57;}.cls-41{fill:#808083;}.cls-42{fill:#868491;}.cls-43{fill:#b4b6bc;}.cls-44{fill:#3482ac;}.cls-45{fill:#009bca;}.cls-46{fill:#5c546a;}.cls-47{fill:#edeef0;}.cls-48{fill:#90c5ff;}.cls-49{fill:#fff;opacity:0.2;}.cls-50{fill:#e02b22;}.cls-51{fill:#c0c2c4;}.cls-52{fill:#ff6464;}.cls-53{fill:#d2555a;}.cls-54{fill:#7e5c62;}.cls-55{fill:#996459;}.cls-56{fill:#ba7958;}.cls-57{fill:#ffcd00;}.cls-58{fill:#ffe671;}.cls-59{fill:#3d3d3b;}.cls-60{fill:#7a7674;}.cls-61{fill:#ffcc75;}.cls-62{fill:#f48205;}.cls-63{fill:#98d9d5;}.cls-64{fill:#f2484b;}.cls-65{fill:#f2ebd9;}.cls-66{fill:#211915;}</style></defs><title>ecolewweb</title><rect class="cls-1" width="1923" height="1092.04"/><path class="cls-2" d="M1802.2,894.8H1658.9a7.05,7.05,0,0,1-6.8-7.29h0V872.9a7.12,7.12,0,0,1,6.8-7.3h143.3a7.05,7.05,0,0,1,6.8,7.29h0v14.6a7.12,7.12,0,0,1-6.8,7.3" transform="translate(0 -3.34)"/><path class="cls-3" d="M1661.1,894.8l14.8,131.6a7.06,7.06,0,0,0,6.8,6.7h95.6a7.06,7.06,0,0,0,6.8-6.7l14.8-131.6H1661.1Z" transform="translate(0 -3.34)"/><polygon class="cls-4" points="1723.6 862.36 1720 840.46 1662.3 852.36 1663.9 862.36 1723.6 862.36"/><polygon class="cls-4" points="1792.5 862.36 1795.3 845.06 1751 837.46 1746.9 862.36 1792.5 862.36"/><polygon class="cls-5" points="1764.6 818.66 1696.2 824.86 1698.2 844.96 1720 840.46 1723.6 862.36 1746.9 862.36 1751 837.46 1766.8 840.16 1764.6 818.66"/><path class="cls-2" d="M1682.7,1033h95.6a7.06,7.06,0,0,0,6.8-6.7l1.9-22.4H1674.1l1.9,22.4a6.9,6.9,0,0,0,6.7,6.7" transform="translate(0 -3.34)"/><path class="cls-2" d="M1730.5,985.7a3.48,3.48,0,0,1-3.4-3.56V916.6a3.41,3.41,0,1,1,6.8,0v65.5a3.48,3.48,0,0,1-3.36,3.6h0" transform="translate(0 -3.34)"/><path class="cls-2" d="M1699,985.6a3.48,3.48,0,0,1-3.4-3.3l-5.4-65.2a3.42,3.42,0,1,1,6.8-.6l5.4,65.2a3.46,3.46,0,0,1-3,3.89H1699" transform="translate(0 -3.34)"/><path class="cls-2" d="M1762,985.6h-.3a3.51,3.51,0,0,1-3.1-3.87v0l5.4-65.2a3.47,3.47,0,0,1,3.63-3.3h.07a3.51,3.51,0,0,1,3.1,3.87v0l-5.4,65.2a3.56,3.56,0,0,1-3.4,3.3" transform="translate(0 -3.34)"/><path class="cls-6" d="M118,1015.9l-6.1-4.1a57.47,57.47,0,0,1-16.7-17.3L92,989.4a18.08,18.08,0,0,1,2.2-21.9l60.4-62.6,43.6,45.2-61.4,63.6a14.51,14.51,0,0,1-18.8,2.2" transform="translate(0 -3.34)"/><polygon class="cls-7" points="192.1 940.36 160.9 908.16 186.2 882.66 217 914.56 192.1 940.36"/><polygon class="cls-8" points="185.9 908.16 179.6 901.66 185.9 895.26 192.1 901.66 185.9 908.16"/><polygon class="cls-8" points="198.3 921.06 192.1 914.56 198.3 908.16 204.5 914.56 198.3 921.06"/><path class="cls-9" d="M167.2,969.5,161,963l-6.2,6.5,1.6,1.6h0l-5.1,5.3-12.9-6,19.3-19.9v3.9a2.2,2.2,0,0,0,4.4,0h0v-9.1a2.24,2.24,0,0,0-2.18-2.3h-11a2.3,2.3,0,0,0,0,4.6h5.3L130.6,972l-5.8-13.3,5.2-5.3a2.55,2.55,0,0,0,.6-1.3c.2,0,.5.1.7.1a4.48,4.48,0,0,0,4.4-4.56v0a4.55,4.55,0,0,0-4.4-4.6,4.48,4.48,0,0,0-4.4,4.56v0a4.28,4.28,0,0,0,.6,2.2,2.09,2.09,0,0,0-.6.4l-6.2,6.5a2.45,2.45,0,0,0-.4,2.6l7.2,16.3-3.6,3.7a2.35,2.35,0,0,0-.5,1,5.92,5.92,0,0,0-2.9-.7,6.8,6.8,0,1,0,6.6,7q0-.1,0-.2a6.65,6.65,0,0,0-.9-3.4,4,4,0,0,0,.9-.5l4.7-4.9h0l3.5-3.7,15.8,7.4a2.92,2.92,0,0,0,.9.2,2.13,2.13,0,0,0,1.6-.7l6.2-6.4h0l1.6,1.6Z" transform="translate(0 -3.34)"/><path class="cls-10" d="M1759.8,529H1550.4c-8.9,0-16.1-6.6-16.1-14.9s7.2-14.9,16.1-14.9h209.4c8.9,0,16.1,6.6,16.1,14.9s-7.2,14.9-16.1,14.9" transform="translate(0 -3.34)"/><path class="cls-11" d="M1687.4,469.6c0-16.4-14.4-29.7-32.2-29.7s-32.2,13.3-32.2,29.7,14.4,29.7,32.2,29.7,32.2-13.3,32.2-29.7" transform="translate(0 -3.34)"/><path class="cls-11" d="M1840.4,328.5c0-16.4-14.4-29.7-32.2-29.7s-32.2,13.3-32.2,29.7,14.4,29.7,32.2,29.7,32.2-13.3,32.2-29.7" transform="translate(0 -3.34)"/><path class="cls-10" d="M1477.4,194.3,1466,204.8l113.9,105,11.4-10.5c31.4-29,31.4-76,0-105h0c-31.5-29-82.5-29-113.9,0" transform="translate(0 -3.34)"/><path class="cls-12" d="M1490.7,227.7c-8.6,16.6-5.5,37,9.4,50.7s37,16.6,55,8.7Z" transform="translate(0 -3.34)"/><path class="cls-10" d="M1800.7,299.7,1661.2,177.8a37.26,37.26,0,0,1-9,12.9l-11.6,10.6,136.6,119.6c2.9-10.5,12-18.7,23.5-21.2" transform="translate(0 -3.34)"/><path class="cls-10" d="M1777.1,335.9,1662.3,440.7h0a33,33,0,0,1,6.3,2c.2.1.3.2.5.2a29,29,0,0,1,5.2,2.9c.1.1.2.1.3.2a29.35,29.35,0,0,1,4.6,4h0a26.39,26.39,0,0,1,3.8,5,27,27,0,0,1,3.3,7.8L1799.6,357c-11-2.7-19.6-10.8-22.5-21.1" transform="translate(0 -3.34)"/><path class="cls-11" d="M1651.4,138.9c-15.7-14.5-41.2-14.5-56.9,0l-39,36.3a82.12,82.12,0,0,1,35.8,19.1h0a72.11,72.11,0,0,1,20.7,33l39.4-35.9c15.7-14.5,15.7-38,0-52.5" transform="translate(0 -3.34)"/><polygon class="cls-13" points="1307.8 984.36 1279.2 955.16 1446.2 784.76 1474.8 813.96 1307.8 984.36"/><path class="cls-14" d="M1450.9,827a10.38,10.38,0,0,0,0-14.6,10,10,0,0,0-14.14-.16l-.16.16a10.38,10.38,0,0,0,0,14.6,9.85,9.85,0,0,0,13.92.38l.38-.38" transform="translate(0 -3.34)"/><polygon class="cls-14" points="1441.4 848.06 1434.2 840.76 1439 835.86 1446.2 843.16 1441.4 848.06"/><polygon class="cls-14" points="1431.8 857.76 1424.7 850.46 1429.5 845.56 1436.6 852.86 1431.8 857.76"/><polygon class="cls-14" points="1422.3 867.46 1415.1 860.16 1419.9 855.36 1427.1 862.66 1422.3 867.46"/><polygon class="cls-14" points="1412.8 877.26 1405.6 869.96 1410.4 865.06 1417.5 872.36 1412.8 877.26"/><polygon class="cls-14" points="1403.2 886.96 1388.9 872.36 1393.7 867.46 1408 882.16 1403.2 886.96"/><polygon class="cls-14" points="1393.7 896.76 1386.5 889.46 1391.3 884.56 1398.4 891.86 1393.7 896.76"/><polygon class="cls-14" points="1384.1 906.46 1377 899.16 1381.7 894.26 1388.9 901.56 1384.1 906.46"/><polygon class="cls-14" points="1374.6 916.16 1367.4 908.86 1372.2 904.06 1379.4 911.36 1374.6 916.16"/><polygon class="cls-14" points="1365 925.96 1357.9 918.66 1362.7 913.76 1369.8 921.06 1365 925.96"/><polygon class="cls-14" points="1355.5 935.66 1341.2 921.06 1346 916.16 1360.3 930.76 1355.5 935.66"/><polygon class="cls-14" points="1346 945.36 1338.8 938.06 1343.6 933.26 1350.7 940.56 1346 945.36"/><polygon class="cls-14" points="1336.4 955.16 1329.3 947.86 1334 942.96 1341.2 950.26 1336.4 955.16"/><polygon class="cls-14" points="1326.9 964.86 1319.7 957.56 1324.5 952.66 1331.6 959.96 1326.9 964.86"/><polygon class="cls-14" points="1317.3 974.56 1310.2 967.26 1314.9 962.46 1322.1 969.76 1317.3 974.56"/><path class="cls-15" d="M497.8,39H318.2a11.85,11.85,0,0,0-11.6,12.09h0V377a11.85,11.85,0,0,0,11.59,12.1H538.4A11.85,11.85,0,0,0,550,377h0V93.3Z" transform="translate(0 -3.34)"/><path class="cls-16" d="M373.3,195.9h-29a3,3,0,0,1-2.9-3V174.8a2.93,2.93,0,0,1,2.86-3h29a3,3,0,0,1,2.9,3v18.1A3,3,0,0,1,373.3,195.9Z" transform="translate(0 -3.34)"/><path class="cls-17" d="M419.6,195.9h-29a3,3,0,0,1-2.9-3V174.8a2.93,2.93,0,0,1,2.86-3h29a3,3,0,0,1,2.9,3v18.1A3,3,0,0,1,419.6,195.9Z" transform="translate(0 -3.34)"/><path class="cls-17" d="M466,195.9H437a3,3,0,0,1-2.9-3V174.8a2.93,2.93,0,0,1,2.86-3h29a3,3,0,0,1,2.9,3v18.1A3,3,0,0,1,466,195.9Z" transform="translate(0 -3.34)"/><path class="cls-17" d="M512.3,195.9h-29a3,3,0,0,1-2.9-3V174.8a2.93,2.93,0,0,1,2.86-3h29a3,3,0,0,1,2.9,3v18.1A3,3,0,0,1,512.3,195.9Z" transform="translate(0 -3.34)"/><path class="cls-17" d="M373.3,159.7h-29a3,3,0,0,1-2.9-3V138.6a2.93,2.93,0,0,1,2.86-3h29a3,3,0,0,1,2.9,3v18.1A3,3,0,0,1,373.3,159.7Z" transform="translate(0 -3.34)"/><path class="cls-18" d="M419.6,159.7h-29a3,3,0,0,1-2.9-3V138.6a2.93,2.93,0,0,1,2.86-3h29a3,3,0,0,1,2.9,3v18.1A3,3,0,0,1,419.6,159.7Z" transform="translate(0 -3.34)"/><path class="cls-18" d="M466,159.7H437a3,3,0,0,1-2.9-3V138.6a2.93,2.93,0,0,1,2.86-3h29a3,3,0,0,1,2.9,3v18.1A3,3,0,0,1,466,159.7Z" transform="translate(0 -3.34)"/><path class="cls-18" d="M512.3,159.7h-29a3,3,0,0,1-2.9-3V138.6a2.93,2.93,0,0,1,2.86-3h29a3,3,0,0,1,2.9,3v18.1A3,3,0,0,1,512.3,159.7Z" transform="translate(0 -3.34)"/><path class="cls-16" d="M373.3,232.1h-29a3,3,0,0,1-2.9-3V211a2.93,2.93,0,0,1,2.86-3h29a3,3,0,0,1,2.9,3v18.1a2.93,2.93,0,0,1-2.86,3Z" transform="translate(0 -3.34)"/><path class="cls-17" d="M419.6,232.1h-29a3,3,0,0,1-2.9-3V211a2.93,2.93,0,0,1,2.86-3h29a3,3,0,0,1,2.9,3v18.1a2.93,2.93,0,0,1-2.86,3Z" transform="translate(0 -3.34)"/><path class="cls-17" d="M466,232.1H437a3,3,0,0,1-2.9-3V211a2.93,2.93,0,0,1,2.86-3h29a3,3,0,0,1,2.9,3v18.1a2.93,2.93,0,0,1-2.86,3Z" transform="translate(0 -3.34)"/><path class="cls-17" d="M512.3,232.1h-29a3,3,0,0,1-2.9-3V211a2.93,2.93,0,0,1,2.86-3h29a3,3,0,0,1,2.9,3v18.1a2.93,2.93,0,0,1-2.86,3Z" transform="translate(0 -3.34)"/><path class="cls-16" d="M373.3,268.3h-29a3,3,0,0,1-2.9-3V247.2a2.93,2.93,0,0,1,2.86-3h29a3,3,0,0,1,2.9,3v18.1a2.93,2.93,0,0,1-2.86,3Z" transform="translate(0 -3.34)"/><path class="cls-17" d="M419.6,268.3h-29a3,3,0,0,1-2.9-3V247.2a2.93,2.93,0,0,1,2.86-3h29a3,3,0,0,1,2.9,3v18.1a2.93,2.93,0,0,1-2.86,3Z" transform="translate(0 -3.34)"/><path class="cls-17" d="M466,268.3H437a3,3,0,0,1-2.9-3V247.2a2.93,2.93,0,0,1,2.86-3h29a3,3,0,0,1,2.9,3v18.1a2.93,2.93,0,0,1-2.86,3Z" transform="translate(0 -3.34)"/><path class="cls-17" d="M512.3,268.3h-29a3,3,0,0,1-2.9-3V247.2a2.93,2.93,0,0,1,2.86-3h29a3,3,0,0,1,2.9,3v18.1a2.93,2.93,0,0,1-2.86,3Z" transform="translate(0 -3.34)"/><path class="cls-16" d="M373.3,304.5h-29a3,3,0,0,1-2.9-3V283.4a2.93,2.93,0,0,1,2.86-3h29a3,3,0,0,1,2.9,3v18.1a2.93,2.93,0,0,1-2.86,3Z" transform="translate(0 -3.34)"/><path class="cls-17" d="M419.6,304.5h-29a3,3,0,0,1-2.9-3V283.4a2.93,2.93,0,0,1,2.86-3h29a3,3,0,0,1,2.9,3v18.1a2.93,2.93,0,0,1-2.86,3Z" transform="translate(0 -3.34)"/><path class="cls-17" d="M466,304.5H437a3,3,0,0,1-2.9-3V283.4a2.93,2.93,0,0,1,2.86-3h29a3,3,0,0,1,2.9,3v18.1a2.93,2.93,0,0,1-2.86,3Z" transform="translate(0 -3.34)"/><path class="cls-17" d="M512.3,304.5h-29a3,3,0,0,1-2.9-3V283.4a2.93,2.93,0,0,1,2.86-3h29a3,3,0,0,1,2.9,3v18.1a2.93,2.93,0,0,1-2.86,3Z" transform="translate(0 -3.34)"/><path class="cls-16" d="M373.3,340.7h-29a3,3,0,0,1-2.9-3V319.6a2.93,2.93,0,0,1,2.86-3h29a3,3,0,0,1,2.9,3v18.1a2.93,2.93,0,0,1-2.86,3Z" transform="translate(0 -3.34)"/><path class="cls-17" d="M419.6,340.7h-29a3,3,0,0,1-2.9-3V319.6a2.93,2.93,0,0,1,2.86-3h29a3,3,0,0,1,2.9,3v18.1a2.93,2.93,0,0,1-2.86,3Z" transform="translate(0 -3.34)"/><path class="cls-17" d="M466,340.7H437a3,3,0,0,1-2.9-3V319.6a2.93,2.93,0,0,1,2.86-3h29a3,3,0,0,1,2.9,3v18.1a2.93,2.93,0,0,1-2.86,3Z" transform="translate(0 -3.34)"/><path class="cls-17" d="M512.3,340.7h-29a3,3,0,0,1-2.9-3V319.6a2.93,2.93,0,0,1,2.86-3h29a3,3,0,0,1,2.9,3v18.1a2.93,2.93,0,0,1-2.86,3Z" transform="translate(0 -3.34)"/><path class="cls-19" d="M555.5,781.4A39.07,39.07,0,1,1,611.4,836l-.6.6Z" transform="translate(0 -3.34)"/><polygon class="cls-20" points="569.3 854.06 442.7 980.56 440.1 1003.86 579.7 864.36 579.7 864.36 569.3 854.06"/><polygon class="cls-20" points="412.5 976.26 435.8 973.66 562.4 847.16 541.7 826.46 415 952.96 412.5 976.26"/><polygon class="cls-20" points="534.8 819.56 524.4 809.16 524.4 809.16 384.8 948.66 408.1 946.06 534.8 819.56"/><polygon class="cls-21" points="600.4 843.66 600.4 843.66 610.8 833.36 555.5 778.06 545.1 788.46 545.1 788.46 600.4 843.66"/><polygon class="cls-21" points="538.2 795.36 538.2 795.36 531.3 802.26 531.3 802.26 586.6 857.46 586.6 857.46 593.5 850.56 593.5 850.56 538.2 795.36"/><path class="cls-22" d="M432.5,987.2l-25,2.8h-1c-.2,0-.3-.1-.5-.2-.4-.1-.7-.2-1-.3a4.34,4.34,0,0,1-.7-.4,5,5,0,0,1-.8-.7c-.2-.2-.3-.4-.5-.6a7.25,7.25,0,0,1-.5-.9,2.35,2.35,0,0,1-.2-.8c0-.2-.1-.3-.1-.4v-.5c0-.2-.1-.4,0-.5l2.8-25-25,2.8h-.5a4.25,4.25,0,0,1-1.1-.2l-14,58.8,10.3-10.3a4.88,4.88,0,0,1,6.9,6.9L371.3,1028l58.8-14a4.73,4.73,0,0,1-.1-1.7Z" transform="translate(0 -3.34)"/><path class="cls-23" d="M381.4,1010.7a4.89,4.89,0,0,0-6.9,0L364.2,1021l-2.2,9.1,9.1-2.2,10.3-10.3A4.89,4.89,0,0,0,381.4,1010.7Z" transform="translate(0 -3.34)"/><polygon class="cls-24" points="600.4 843.66 545.1 788.46 545.1 788.46 538.2 795.36 538.2 795.36 593.5 850.56 593.5 850.56 600.4 843.66"/><path class="cls-25" d="M562.4,850.5,435.8,977l-23.3,2.6,2.6-23.3L541.7,829.8l-6.9-6.9L408.1,949.4,384.8,952l-5.5,5.5-1.1,4.7a4.25,4.25,0,0,0,1.1.2h.5l25-2.8-2.8,25v.5c0,.2-.1.4,0,.5a.6.6,0,0,1,.1.4c.1.3.1.5.2.8a4,4,0,0,0,.5.9,2.65,2.65,0,0,0,.5.6,5.72,5.72,0,0,0,.8.7,1.61,1.61,0,0,0,.7.4,3.81,3.81,0,0,0,1,.3c.2,0,.3.1.5.2h1l25-2.8-2.8,25a4.88,4.88,0,0,0,.1,1.7l4.7-1.1,5.5-5.5,2.6-23.3L569,857.4Z" transform="translate(0 -3.34)"/><polygon class="cls-24" points="586.6 857.46 531.3 802.26 531.3 802.26 524.4 809.16 524.4 809.16 534.8 819.56 541.7 826.46 562.4 847.16 569.3 854.06 579.7 864.36 579.7 864.36 586.6 857.46"/><path class="cls-26" d="M198.7,160.6a22.78,22.78,0,0,0,9.4-18.5V106.8H118.7v35.3a22.51,22.51,0,0,0,9.4,18.5l27.8,21.6a4.22,4.22,0,0,1,1.6,3.3h0a4.08,4.08,0,0,1-1.6,3.3L128,210.4a22.51,22.51,0,0,0-9.4,18.5v35.3H208V228.9a22.51,22.51,0,0,0-9.4-18.5l-27.8-21.6a4.22,4.22,0,0,1-1.6-3.3h0a4.08,4.08,0,0,1,1.6-3.3Z" transform="translate(0 -3.34)"/><rect class="cls-27" x="103.8" y="260.86" width="119.2" height="12.6"/><rect class="cls-27" x="103.8" y="90.76" width="119.2" height="12.6"/><path class="cls-28" d="M234.9,273.7H91.8a3.1,3.1,0,0,0-3,3.1,3,3,0,0,0,2.9,3.1H234.9a3.1,3.1,0,1,0,0-6.2Z" transform="translate(0 -3.34)"/><path class="cls-28" d="M91.8,97.3H234.9a3.12,3.12,0,0,0,3-3.2A3.06,3.06,0,0,0,235,90.9H91.8a3.21,3.21,0,0,0,0,6.4Z" transform="translate(0 -3.34)"/><path class="cls-25" d="M193.7,152.7a13,13,0,0,0,5.4-10.6h0a8.86,8.86,0,0,0-6.4-8.7l-44.9-11.9c-10.3-2.7-20.2,5.5-20.2,16.7v3.9a12.72,12.72,0,0,0,5.4,10.6l27.4,21.2v50c0,11.4-11.2,19-21,14.2h0a8.15,8.15,0,0,0-11.7,7.4v18.6h71.5V228.6a9.61,9.61,0,0,0-11.3-9.4l-6.1,1.1c-8,1.5-15.4-5.1-15.4-13.7V173.8Z" transform="translate(0 -3.34)"/><path class="cls-29" d="M72.8,618,54.6,636.4a5.31,5.31,0,0,0,0,7.4,5.19,5.19,0,0,0,7.3,0l18.2-18.4Z" transform="translate(0 -3.34)"/><path class="cls-30" d="M80.1,595.1l22.3.5.4,22.5c-16,16.1-31.1,21-37.4,14.7S64,611.2,80.1,595.1Z" transform="translate(0 -3.34)"/><polygon class="cls-31" points="212.5 504.26 102.8 614.66 80.1 591.76 189.7 481.36 212.5 504.26"/><path class="cls-32" d="M278.5,471.1a5.19,5.19,0,0,0-7.3,0l-3.6,3.7-19-19.2-7.3,7.4,19,19.2-51.1,51.5a5.31,5.31,0,0,0,0,7.4,5.07,5.07,0,0,0,7.17,0l0,0,62.1-62.5A5.45,5.45,0,0,0,278.5,471.1Z" transform="translate(0 -3.34)"/><path class="cls-33" d="M178.4,488.1l53.3-53.7a21.67,21.67,0,0,1,30.65-.05l.05.05a21.91,21.91,0,0,1,0,30.9L209.1,519Z" transform="translate(0 -3.34)"/><path class="cls-34" d="M1715.9,785.8c3.5-12.4,9.6-23.8,12-26l-8.7-8.3-8.6-8.3c-2.4,2.2-14.3,8.1-27.2,11.5,0,0-.9,23.1-3.6,27.3a8,8,0,0,0-6.1,11.1s17.8-17,20.3-19.4h0a5.81,5.81,0,0,1,.9-7.4,6.4,6.4,0,0,1,8.9,0,5.75,5.75,0,0,1,.38,8.12q-.18.2-.38.38a6.51,6.51,0,0,1-7.7.9c-2.5,2.4-20.3,19.4-20.3,19.4,3.5,1.7,10.5.2,11.6-5.8C1691.7,786.6,1715.9,785.8,1715.9,785.8Z" transform="translate(0 -3.34)"/><path class="cls-35" d="M1873.4,604.2c-5.1-4.8-13.9-2.2-24,3.8l20,19.2C1875.7,617.4,1878.4,609,1873.4,604.2Z" transform="translate(0 -3.34)"/><path class="cls-36" d="M1844.3,657.8c7-7.8,14.5-16.1,20.4-24l-22.3-21.3c-8.2,5.6-16.9,12.8-25.1,19.5s-24.1,22.1-40.9,38.6c-2.5,2.5-5.1,5-7.6,7.5-24.1,23.9-47.8,48.1-51.7,51.8-7,6.7-6.4,13.2-6.4,13.2l8.6,8.3,8.6,8.3s6.8.6,13.8-6.1c3.9-3.7,29.3-26.5,54.3-49.4l7.9-7.3C1821.2,680.8,1837.2,665.6,1844.3,657.8Z" transform="translate(0 -3.34)"/><path class="cls-37" d="M1868.1,629.1c.4-.6.9-1.3,1.3-1.9l-20-19.2c-2.3,1.3-4.6,2.9-7,4.5l22.3,21.3c.2-.3.5-.6.7-.9,1.3,2.7,1,5.8-1.7,11.1-2.8,5.6-8.6,9.9-14.6,14.5a106.13,106.13,0,0,0-9.6,7.9c-9.4,8.9-13.2,19-13.2,34.6h4.4c0-12.2,2-22.2,11.9-31.6a99.14,99.14,0,0,1,9.3-7.6c6.2-4.7,12.6-9.5,15.8-16C1871.7,638,1871.2,633.4,1868.1,629.1Z" transform="translate(0 -3.34)"/><path class="cls-37" d="M1777.1,669.9l-.7.7c-2.5,2.5-5.1,5-7.6,7.5l-.7.7,27.2,26a4.62,4.62,0,0,0,.7-.7l7.9-7.3a4.62,4.62,0,0,0,.7-.7Z" transform="translate(0 -3.34)"/><path class="cls-38" d="M1869.4,627.2c6.3-9.7,9-18.1,4-23h0L1854,622.7,1703.8,766.2a5.75,5.75,0,0,1,.38,8.12q-.18.2-.38.38a6.51,6.51,0,0,1-7.7.9c-2.5,2.4-20.3,19.4-20.3,19.4,3.5,1.7,10.5.2,11.6-5.8,4.4-2.6,28.6-3.4,28.6-3.4,3.5-12.4,9.6-23.8,12-26,0,0,6.8.6,13.8-6.1,3.9-3.7,29.3-26.5,54.3-49.4l7.9-7.3a4.62,4.62,0,0,0,.7-.7h0c17.1-15.8,32.7-30.7,39.7-38.4s14.2-15.9,20.1-23.6h0c0-.1.1-.1.1-.2s.1-.1.1-.2h0a7.05,7.05,0,0,1,.7-.9c1.3,2.7,1,5.8-1.7,11.1-2.8,5.6-8.6,9.9-14.6,14.5a106.13,106.13,0,0,0-9.6,7.9c-9.4,8.9-13.2,19-13.2,34.6h4.4c0-12.2,2-22.2,11.9-31.6a99.14,99.14,0,0,1,9.3-7.6c6.2-4.7,12.6-9.5,15.8-16,4-7.8,3.5-12.5.4-16.8C1868.6,628.4,1869,627.8,1869.4,627.2Z" transform="translate(0 -3.34)"/><rect class="cls-35" x="1826.3" y="79.66" width="5.4" height="24.8"/><rect class="cls-37" x="1829" y="79.66" width="2.7" height="24.8"/><path class="cls-39" d="M1829,186.6s-11.8,12.4-36.7-9.8c-24.4-21.8-30.3-77.4,10.2-78.7,21.2-.7,26.6,9.8,26.6,9.8s5.4-10.5,26.6-9.8c40.5,1.3,34.6,56.9,10.2,78.7C1840.8,198.9,1829,186.6,1829,186.6Z" transform="translate(0 -3.34)"/><path class="cls-40" d="M1853.2,91.8c-7.1,6.6-19.1,6-19.1,6s-.6-11.2,6.5-17.8,19.1-6,19.1-6S1860.3,85.2,1853.2,91.8Z" transform="translate(0 -3.34)"/><path class="cls-38" d="M1859.7,74l-25.6,23.8s12,.5,19.1-6S1859.7,74,1859.7,74Z" transform="translate(0 -3.34)"/><path class="cls-38" d="M1855.6,98c-21.2-.7-26.6,9.8-26.6,9.8v78.7s11.8,12.4,36.7-9.8C1890.1,155,1896,99.3,1855.6,98Z" transform="translate(0 -3.34)"/><path class="cls-26" d="M1328.9,734c37.3,34.8,98,34.7,135.5-.3,18.7-17.5,36-58,15.3-77.3s-38.8,2.6-54.6-12.1,7.6-31.7-13-50.9-64.1-3.2-82.9,14.3C1291.7,642.6,1291.6,699.2,1328.9,734Z" transform="translate(0 -3.34)"/><ellipse class="cls-34" cx="1342.3" cy="645.26" rx="13.8" ry="12.8"/><ellipse class="cls-40" cx="1382.6" cy="618.46" rx="13.8" ry="12.8"/><ellipse class="cls-34" cx="1448.9" cy="673.56" rx="13.8" ry="12.8"/><ellipse class="cls-40" cx="1424.9" cy="713.96" rx="13.8" ry="12.8"/><ellipse class="cls-36" cx="1376.2" cy="721.86" rx="13.8" ry="12.8"/><ellipse class="cls-39" cx="1339.5" cy="691.26" rx="13.8" ry="12.8"/><path class="cls-38" d="M1382.6,609v25.7c7.6,0,13.8-5.7,13.8-12.8S1390.2,609,1382.6,609Z" transform="translate(0 -3.34)"/><path class="cls-34" d="M1328.6,648.6c0,7.1,6.2,12.8,13.8,12.8V635.7C1334.7,635.7,1328.6,641.5,1328.6,648.6Z" transform="translate(0 -3.34)"/><path class="cls-38" d="M1342.3,635.7v25.7c7.6,0,13.8-5.7,13.8-12.8S1349.9,635.7,1342.3,635.7Z" transform="translate(0 -3.34)"/><path class="cls-38" d="M1448.9,664.1v25.7c7.6,0,13.8-5.7,13.8-12.8S1456.5,664.1,1448.9,664.1Z" transform="translate(0 -3.34)"/><path class="cls-38" d="M1424.9,704.5v25.7c7.6,0,13.8-5.7,13.8-12.8S1432.5,704.5,1424.9,704.5Z" transform="translate(0 -3.34)"/><path class="cls-38" d="M1390,725.2c0-7.1-6.1-12.8-13.7-12.8V738C1383.9,737.9,1390,732.2,1390,725.2Z" transform="translate(0 -3.34)"/><path class="cls-38" d="M1339.5,681.7v25.7c7.6,0,13.8-5.7,13.8-12.8S1347.1,681.7,1339.5,681.7Z" transform="translate(0 -3.34)"/><polygon class="cls-41" points="1579.3 832.56 1571.8 807.26 1566.4 807.26 1558.9 832.56 1541.2 832.56 1541.2 840.36 1597 840.36 1597 832.56 1579.3 832.56"/><polygon class="cls-38" points="1597 832.56 1579.3 832.56 1571.8 807.26 1569.1 807.26 1569.1 840.36 1597 840.36 1597 832.56"/><ellipse class="cls-36" cx="1569.1" cy="739.16" rx="57.3" ry="53.5"/><path class="cls-40" d="M1585.7,703.5a3.67,3.67,0,0,0-.9,1.6c-.2,1,.5,1.9,1.2,2.7a7.36,7.36,0,0,0,3.7,2.8c2.9.7,5.5-2,8.5-2.3,2.4-.2,4.6,1.3,7,1.4,2.7.1,4.1-2.3,4.7-4.8a58.17,58.17,0,0,0-15.1-10.2C1592.5,697.3,1587.9,700.9,1585.7,703.5Z" transform="translate(0 -3.34)"/><path class="cls-40" d="M1623.8,726.4c-1.1,3-4,2.2-7.9,2.5-5,.4-8-1.9-12.5-2.8-4.2-.8-8,1.9-10,5.2-1.5,2.4-3.8,7.8-1.8,10.3a10.14,10.14,0,0,0,3.7,2.7,42,42,0,0,0,6,3c2.4.9,5.2,1.5,6.7,3.5,1.3,1.6,1.4,3.8,1.2,5.8-.6,5.4-5.7,10.2-1,15.2a8.85,8.85,0,0,0,6.7,2.9,51.06,51.06,0,0,0,11.6-32.3A53.67,53.67,0,0,0,1623.8,726.4Z" transform="translate(0 -3.34)"/><path class="cls-40" d="M1571.8,699.9a5.43,5.43,0,0,0,6.1-1.6c1.4-1.7,2.8-6.1,2.4-8.3a59.07,59.07,0,0,0-11.2-1c-1,0-2,0-3,.1.7,2,1.9,3.7,2.3,5.7S1569.7,699,1571.8,699.9Z" transform="translate(0 -3.34)"/><path class="cls-40" d="M1524,727.8a71.75,71.75,0,0,0,9.1,7.4,5.18,5.18,0,0,1,2.2,2.2c1,2.9-.7,5.9,1.1,9.2,1.7,3.1,5.5,5,6.5,8.3.8,2.6-.4,5.4.3,8.1.8,3.2,4.1,5.4,5.3,8.4.8,2,.6,4.1,1.2,6.2s2.3,4.1,4.5,3.9c2.7-.2,3.8-3.3,4-5.8s.5-5.6,2.9-6.7c1.3-.6,3-.5,4-1.5,1.7-1.6,0-4.2,0-6.4.1-2.4,2.2-4.2,4.1-5.8l7.3-5.8a5.07,5.07,0,0,0,1.4-5.7,9.54,9.54,0,0,0-4.2-4.7c-2-1.2-4.5-2.1-6.7-1.2-1.7.7-3,2.2-4.8,2.3a4.48,4.48,0,0,1-3.9-2.5c-.8-1.3-1.2-2.9-2-4.3-2.3-3.9-6.1-3.7-10.2-4.3a23.55,23.55,0,0,1-11.4-5,3.49,3.49,0,0,1-1.2-1.5c-1.1-3.3,5.2-4.8,7.4-4.7,1.8.1,3.6.5,5.3.1s2.9-1.6,4.3-2.5c3.9-2.6,9.6.9,10.4-6,.3-2.7-.8-5.4-1.9-7.9a96.67,96.67,0,0,1-4.1-10.9c-16.3,3.9-29.8,14.2-37.2,28,2,2,1.4,1,2.2,3.6A15.56,15.56,0,0,0,1524,727.8Z" transform="translate(0 -3.34)"/><path class="cls-35" d="M1624.7,695.3l4.2-4-5.1-4.8-13.4,12.6,5.1,4.8,4.1-3.8a60.54,60.54,0,0,1,17.4,42.4c0,16.9-7.1,32.9-19.9,44.9-25.6,23.9-66.8,24.7-93.5,2.3l4.1-3.8-5.1-4.8-13.4,12.6,5.1,4.8,4.2-4a78.17,78.17,0,0,0,50.5,18.2c19.2,0,38.5-6.8,53.1-20.5,14.2-13.3,22-30.9,22-49.6C1644.2,724.9,1637.3,708.3,1624.7,695.3Z" transform="translate(0 -3.34)"/><path class="cls-38" d="M1609.6,704.7l-81.1,75.7c22.4,20.9,58.7,20.9,81.1,0S1632,725.6,1609.6,704.7Z" transform="translate(0 -3.34)"/><path class="cls-42" d="M491.8,648.4H364.2a4.37,4.37,0,0,1-4.6-4.1,4.31,4.31,0,0,1,4.51-4.11H491.8a4.37,4.37,0,0,1,4.6,4.1A4.51,4.51,0,0,1,491.8,648.4Z" transform="translate(0 -3.34)"/><path class="cls-42" d="M505.4,747a6.75,6.75,0,0,0,1.4-.2,4.14,4.14,0,0,0,3.06-5l-.06-.21-10.9-31.3a4.63,4.63,0,0,0-5.7-2.7,4.14,4.14,0,0,0-3.06,5l.06.21,10.9,31.3A4.46,4.46,0,0,0,505.4,747Z" transform="translate(0 -3.34)"/><path class="cls-43" d="M429.9,553.9l57.8,165.2a9.09,9.09,0,0,0,8.7,5.8,8.42,8.42,0,0,0,2.7-.4c4.8-1.4,7.5-6,6-10.3l-60-171.3Z" transform="translate(0 -3.34)"/><path class="cls-42" d="M350.7,747a6.75,6.75,0,0,1-1.4-.2,4.14,4.14,0,0,1-3.06-5l.06-.21,10.9-31.3a4.63,4.63,0,0,1,5.7-2.7,4.14,4.14,0,0,1,3.06,5l-.06.21L355,744.1A4.46,4.46,0,0,1,350.7,747Z" transform="translate(0 -3.34)"/><path class="cls-43" d="M426.2,553.9,368.4,719.1a9.09,9.09,0,0,1-8.7,5.8,8.42,8.42,0,0,1-2.7-.4c-4.8-1.4-7.5-6-6-10.3l60-171.3Z" transform="translate(0 -3.34)"/><path class="cls-44" d="M428.1,521c-5,0-9.1-3.7-9.1-8.2V492.3c0-4.5,4.1-8.2,9.1-8.2s9.1,3.7,9.1,8.2v20.5C437.2,517.3,433.2,521,428.1,521Z" transform="translate(0 -3.34)"/><path class="cls-45" d="M437.2,504.5H419c-7.5,0-13.7,5.5-13.7,12.3v20.5c0,11.3,10.2,20.5,22.8,20.5s22.8-9.2,22.8-20.5V516.8C450.9,510.1,444.8,504.5,437.2,504.5Z" transform="translate(0 -3.34)"/><path class="cls-45" d="M436.1,660.7H420.2a1.1,1.1,0,0,1-1.1-1V628.9a1,1,0,0,1,1-1h16a1.1,1.1,0,0,1,1.1,1v30.8A1.1,1.1,0,0,1,436.1,660.7Z" transform="translate(0 -3.34)"/><ellipse class="cls-46" cx="428" cy="534.06" rx="9.1" ry="8.2"/><rect class="cls-47" x="1316.1" y="85.66" width="99.2" height="141"/><rect class="cls-37" x="1329.2" y="98.06" width="39.7" height="3.1"/><rect class="cls-37" x="1329.2" y="112.16" width="73.2" height="3.1"/><rect class="cls-37" x="1329.2" y="126.36" width="73.2" height="3.1"/><rect class="cls-37" x="1329.2" y="140.46" width="73.2" height="3.1"/><rect class="cls-37" x="1329.2" y="154.66" width="73.2" height="3.1"/><rect class="cls-37" x="1329.2" y="168.76" width="73.2" height="3.1"/><rect class="cls-37" x="1329.2" y="182.86" width="73.2" height="3.1"/><rect class="cls-37" x="1329.2" y="197.06" width="73.2" height="3.1"/><rect class="cls-37" x="1329.2" y="211.16" width="73.2" height="3.1"/><ellipse class="cls-48" cx="1394.5" cy="171.26" rx="21.5" ry="23.1"/><polygon class="cls-35" points="1440.2 212.86 1433.4 220.16 1413.8 199.16 1420.6 191.96 1440.2 212.86"/><polygon class="cls-40" points="1420.6 191.96 1413.8 199.16 1412 197.16 1418.7 189.96 1420.6 191.96"/><polygon class="cls-40" points="1442 214.86 1435.2 222.16 1433.4 220.16 1440.2 212.86 1442 214.86"/><polygon class="cls-49" points="1431.6 180.26 1429.8 185.26 1369.6 160.26 1371.4 155.16 1431.6 180.26"/><polygon class="cls-49" points="1437.4 172.96 1435.5 178.06 1375.3 152.96 1377.1 147.96 1437.4 172.96"/><path class="cls-35" d="M1418.6,174.6a26.69,26.69,0,0,0-7-18.2,22.9,22.9,0,0,0-17-7.5,23.44,23.44,0,0,0-17,7.5,27.16,27.16,0,0,0,0,36.4,22.94,22.94,0,0,0,32.1,1.8l3.9,4.2,3.5-3.8-3.9-4.2A26.32,26.32,0,0,0,1418.6,174.6ZM1394.5,195a18.21,18.21,0,0,1-13.5-6,21.31,21.31,0,0,1,0-28.8,18.19,18.19,0,0,1,27,0,21.31,21.31,0,0,1,0,28.8A18.21,18.21,0,0,1,1394.5,195Z" transform="translate(0 -3.34)"/><path class="cls-37" d="M1418.6,174.6a26.69,26.69,0,0,0-7-18.2,22.9,22.9,0,0,0-17-7.5,23.44,23.44,0,0,0-17,7.5l3.5,3.8a18.19,18.19,0,0,1,27,0,21.31,21.31,0,0,1,0,28.8l3.3,3.5.3.3,3.8,4.1.9,1,22.3,23.9,3.4-3.6-1.8-2-19.6-21-1.8-2-1.6,1.7-3.9-4.2A26.94,26.94,0,0,0,1418.6,174.6Z" transform="translate(0 -3.34)"/><path class="cls-6" d="M1574.4,976.9c2.5,0,4.6-2.6,4.6-5.7s-2.1-5.7-4.6-5.7h-79.8c-2.5,0-4.6,2.6-4.6,5.7s2.1,5.7,4.6,5.7l-4.1,37.7c-.3,2.3,1.2,4.3,3,4.3h16.4c0-5.3,3.4-9.6,7.7-9.6s7.7,4.3,7.7,9.6h18.4c0-5.3,3.4-9.6,7.7-9.6s7.7,4.3,7.7,9.6h16.4c1.9,0,3.3-2,3-4.3Z" transform="translate(0 -3.34)"/><path class="cls-9" d="M1548.6,1009.9l-7.6-55.1a18.2,18.2,0,0,1-13,0l-7.6,55.1-3-.6,8.2-59.8,1.8,1a15.27,15.27,0,0,0,14.1,0l1.8-1,8.2,59.8Z" transform="translate(0 -3.34)"/><path class="cls-6" d="M1548.3,944.9c0,6.4-6.2,11.6-13.8,11.6s-13.8-5.2-13.8-11.6,6.2-11.6,13.8-11.6,13.8,5.2,13.8,11.6" transform="translate(0 -3.34)"/><path class="cls-50" d="M136.9,709.5a24.72,24.72,0,0,1-38.8,0H59.2A12,12,0,0,0,47,721.2v70.2a11.89,11.89,0,0,0,12.07,11.7h39a24.72,24.72,0,0,1,38.8,0h38.9A12,12,0,0,0,188,791.4V721.2a11.89,11.89,0,0,0-12.07-11.7h-39Z" transform="translate(0 -3.34)"/><path class="cls-3" d="M141.8,730.5H47v32.7H167.5a23.24,23.24,0,0,0,1-7c.1-14.2-11.9-25.7-26.7-25.7" transform="translate(0 -3.34)"/><path class="cls-51" d="M167.5,763.2H47V782h94.8a26.71,26.71,0,0,0,25.7-18.8" transform="translate(0 -3.34)"/><path class="cls-51" d="M107.8,746.9a7.31,7.31,0,1,0-7.61,7h.31a7.15,7.15,0,0,0,7.3-7h0" transform="translate(0 -3.34)"/><path class="cls-52" d="M1471.1,379.1c-13.1-14.9-34.5-15-47.7-.2l-78,87a17.72,17.72,0,0,0-.1,23l13.5,15.4a13.3,13.3,0,0,0,20.4.1l60.5-67.6a17.72,17.72,0,0,0,.1-23,13.3,13.3,0,0,0-20.4-.1l-32.3,36a5.91,5.91,0,0,0,0,7.7,4.46,4.46,0,0,0,6.8,0l32.3-36a4.46,4.46,0,0,1,6.8,0,6,6,0,0,1,0,7.7l-60.5,67.6a4.46,4.46,0,0,1-6.8,0l-13.5-15.4a6,6,0,0,1,0-7.7l78-87c9.4-10.5,24.7-10.5,34.1.2s9.2,27.9-.2,38.4l-49.7,55.4a5.91,5.91,0,0,0,0,7.7,4.46,4.46,0,0,0,6.8,0l49.7-55.4C1484,418.1,1484.2,394,1471.1,379.1Z" transform="translate(0 -3.34)"/><path class="cls-53" d="M1422.9,417.5l-32.3,36a5.81,5.81,0,0,0-1.3,5.2,4.84,4.84,0,0,1-2.2-1.4,5.91,5.91,0,0,1,0-7.7l32.3-36c5.7-6.3,14.8-6.3,20.4.1a13.66,13.66,0,0,1,1.5,2.1C1435.9,411.3,1428,411.9,1422.9,417.5Z" transform="translate(0 -3.34)"/><path class="cls-53" d="M1465.8,388.7l1.8,1.8c9.3,10.6,9.2,27.9-.2,38.4l-49.7,55.4a5.81,5.81,0,0,0-1.3,5.2,4.84,4.84,0,0,1-2.2-1.4,5.91,5.91,0,0,1,0-7.7l49.7-55.4C1472.9,415.2,1473.5,399.4,1465.8,388.7Z" transform="translate(0 -3.34)"/><path class="cls-53" d="M1372.5,496.7l60.5-67.6a5.81,5.81,0,0,0,1.3-5.2,4.38,4.38,0,0,1,2.2,1.4,6,6,0,0,1,0,7.7L1376,500.6a4.46,4.46,0,0,1-6.8,0l-3.4-3.9a4.35,4.35,0,0,0,6.7,0Z" transform="translate(0 -3.34)"/><path class="cls-53" d="M1426.8,382.7l-78,87a17.72,17.72,0,0,0-.1,23l-3.4-3.9a17.72,17.72,0,0,1,.1-23l78-87c13.2-14.8,34.6-14.7,47.7.2.6.7,1.1,1.3,1.6,2C1459.5,368.1,1439.4,368.6,1426.8,382.7Z" transform="translate(0 -3.34)"/><path class="cls-39" d="M268.1,828.1s11.1,1.1,13.3-4.2c2.6-6.4,4-19.9,4-40.3,0-46.1-8.3-138.6-8.3-138.6H259s-8.3,92.5-8.3,138.6c0,20.4,1.4,33.9,4,40.3C257,829.2,268.1,828.1,268.1,828.1Z" transform="translate(0 -3.34)"/><path class="cls-34" d="M277.2,645H259.1s-.6,7.1-1.5,18.3h21.2C277.8,652.1,277.2,645,277.2,645Z" transform="translate(0 -3.34)"/><path class="cls-37" d="M270.4,583.1s40.3,36.8,6.4,61.8H259.1s-19.9-10.7-10.7-30.9C256.7,595.5,270.4,597.9,270.4,583.1Z" transform="translate(0 -3.34)"/><path class="cls-35" d="M277.2,645H259.1s-.1,1.5-.4,4.1h18.8C277.3,646.4,277.2,645,277.2,645Z" transform="translate(0 -3.34)"/><path class="cls-38" d="M278.7,663.3c-.4-5.5-.8-10-1.1-13.1v-.1a1.7,1.7,0,0,0-.1-.7v-.2h0c-.2-2.6-.4-4.1-.4-4.1h-.4c33.8-25-6.4-61.8-6.4-61.8a14.92,14.92,0,0,1-2.2,8.4V828.3s11.1,1.1,13.3-4.2c2.6-6.4,4-19.9,4-40.3,0-33.6-4.3-91.2-6.7-120.5Z" transform="translate(0 -3.34)"/><path class="cls-54" d="M706.7,922.2c-1.9,0-3.4-1-3.4-2.3v-9.3c0-1.3,1.5-2.3,3.4-2.3s3.4,1,3.4,2.3v9.3C710,921.1,708.5,922.2,706.7,922.2Z" transform="translate(0 -3.34)"/><path class="cls-54" d="M664.2,922.2c-1.9,0-3.4-1-3.4-2.3v-9.3c0-1.3,1.5-2.3,3.4-2.3s3.4,1,3.4,2.3v9.3C667.6,921.1,666.1,922.2,664.2,922.2Z" transform="translate(0 -3.34)"/><path class="cls-55" d="M750.3,977.7H620.7a2.24,2.24,0,0,0-2.2,2.28v39.42a11.4,11.4,0,0,0,11.2,11.6H741.4a11.4,11.4,0,0,0,11.2-11.6h0V980A2.47,2.47,0,0,0,750.3,977.7Z" transform="translate(0 -3.34)"/><path class="cls-56" d="M745.8,919.8H625.2A11.4,11.4,0,0,0,614,931.4h0v40.3a11.55,11.55,0,0,0,6.9,10.7,158.6,158.6,0,0,0,57.9,13.5h13.5a160.61,160.61,0,0,0,57.8-13.5,11.55,11.55,0,0,0,6.9-10.7V931.4a11.4,11.4,0,0,0-11.2-11.6Z" transform="translate(0 -3.34)"/><path class="cls-54" d="M712.3,970.8a9.14,9.14,0,0,0-8.9-9.3H667.6a9.14,9.14,0,0,0-8.9,9.3v23a167,167,0,0,0,20.1,2.2h13.5a149.19,149.19,0,0,0,20-2.2v-23Z" transform="translate(0 -3.34)"/><path class="cls-57" d="M687.7,1003.2h-4.5a4.57,4.57,0,0,1-4.5-4.6v-9.3a4.5,4.5,0,0,1,4.4-4.6h4.6a4.57,4.57,0,0,1,4.5,4.6v9.3A4.57,4.57,0,0,1,687.7,1003.2Z" transform="translate(0 -3.34)"/><path class="cls-55" d="M710.1,911.7a5.85,5.85,0,0,1-1.3-.2,86.43,86.43,0,0,0-46.6,0,4.53,4.53,0,0,1-5.6-3.1,4.73,4.73,0,0,1,3-5.8,95,95,0,0,1,51.8,0,4.64,4.64,0,0,1,3,5.8A4.56,4.56,0,0,1,710.1,911.7Z" transform="translate(0 -3.34)"/><path class="cls-58" d="M689.9,984.7H681a2.24,2.24,0,0,0-2.2,2.28v4.62a4.5,4.5,0,0,0,4.4,4.6h4.6a4.57,4.57,0,0,0,4.5-4.6V987A2.56,2.56,0,0,0,689.9,984.7Z" transform="translate(0 -3.34)"/><polygon class="cls-59" points="675.3 156.86 651 179.66 651.5 138.96 675.3 156.86"/><polygon class="cls-30" points="616.8 126.46 642.3 139.76 655.1 146.56 702.2 170.66 735.8 83.36 616.8 126.46"/><polygon class="cls-60" points="735.8 83.36 642.3 139.76 651 179.66 655.1 146.56 735.8 83.36"/><path class="cls-61" d="M1142,911.7a5.47,5.47,0,0,0-5.6,5.3v48.6h11.1V917a5.32,5.32,0,0,0-5.34-5.3Z" transform="translate(0 -3.34)"/><path class="cls-61" d="M1163.7,907.3a5.61,5.61,0,0,0-11.2,0v58.3h11.1V907.3Z" transform="translate(0 -3.34)"/><path class="cls-61" d="M1179.9,917.1a5.61,5.61,0,0,0-11.2,0v48.6h11.1V917.1Z" transform="translate(0 -3.34)"/><path class="cls-61" d="M1190.6,921.4a5.47,5.47,0,0,0-5.6,5.3v38.9l11.1-4.9v-34A5.44,5.44,0,0,0,1190.6,921.4Z" transform="translate(0 -3.34)"/><path class="cls-61" d="M1196.1,960.8h-70.3v19.1l9.6,29.1v38.8H1186v-43.2a35.43,35.43,0,0,0,10.1-24.8v-19Z" transform="translate(0 -3.34)"/><path class="cls-62" d="M1131.4,979.9V946.2a5.41,5.41,0,0,0-5.52-5.3h-.08a5.47,5.47,0,0,0-5.6,5.3v33.7c0,20.1,17,36.4,37.9,36.4v-10.7C1158.2,991.4,1146.2,979.9,1131.4,979.9Z" transform="translate(0 -3.34)"/><rect class="cls-63" x="1125.3" y="1039.66" width="70.8" height="29.1"/><rect class="cls-64" x="1120.2" y="1059.06" width="80.9" height="26.6"/><path class="cls-65" d="M1035.8,877.7a5.47,5.47,0,0,0-5.6,5.3v48.6h11.1V883A5.44,5.44,0,0,0,1035.8,877.7Z" transform="translate(0 -3.34)"/><path class="cls-65" d="M1057.5,873.3a5.61,5.61,0,0,0-11.2,0v58.3h11.1V873.3Z" transform="translate(0 -3.34)"/><path class="cls-65" d="M1073.7,883.1a5.61,5.61,0,0,0-11.2,0v48.6h11.1V883.1Z" transform="translate(0 -3.34)"/><path class="cls-65" d="M1084.3,887.4a5.47,5.47,0,0,0-5.6,5.3v38.9l11.1-4.9v-34a5.32,5.32,0,0,0-5.34-5.3Z" transform="translate(0 -3.34)"/><path class="cls-65" d="M1089.9,926.8h-70.3v19.1l9.6,29.1v38.8h50.6V970.6a35.43,35.43,0,0,0,10.1-24.8Z" transform="translate(0 -3.34)"/><path class="cls-61" d="M1025.1,945.9V912.2a5.41,5.41,0,0,0-5.52-5.3h-.08a5.47,5.47,0,0,0-5.6,5.3v33.7c0,20.1,17,36.4,37.9,36.4V971.6C1051.9,957.4,1039.9,945.9,1025.1,945.9Z" transform="translate(0 -3.34)"/><rect class="cls-63" x="1019.1" y="1005.66" width="70.8" height="29.1"/><rect class="cls-64" x="1014" y="1025.06" width="80.9" height="60.6"/><path class="cls-39" d="M667.4,494V452.4h-3.5V494a5.72,5.72,0,0,0-3.6,5.4,5.41,5.41,0,1,0,10.8,0A6,6,0,0,0,667.4,494Z" transform="translate(0 -3.34)"/><path class="cls-35" d="M684,447.9l-80.5-35.3L523,447.9l43,18.9v50c0,8.9,16.8,16.2,37.5,16.2s37.5-7.2,37.5-16.2v-50Z" transform="translate(0 -3.34)"/><polygon class="cls-66" points="641 463.46 603.5 479.96 566 463.46 566 471.46 600.8 486.76 603.5 487.96 606.2 486.76 641 471.46 641 463.46"/></svg>